<svg width="101" height="40" viewBox="0 0 101 40" fill="none" xmlns="http://www.w3.org/2000/svg">
<path d="M29.0782 5.71875H27.7387V6.14542C25.8739 6.56256 25.6058 8.29351 25.5006 8.95494C25.4506 9.2678 25.3491 9.8797 25.2234 10.6292H1.89961C0.976755 10.6292 0.873422 11.4916 0.993898 11.9688L3.73009 24.0483C3.85009 24.5254 4.35533 24.9149 4.85056 24.9149H25.3001C25.7925 24.9149 26.1939 25.3154 26.1939 25.8078C26.1939 26.3002 25.7925 26.7007 25.3001 26.7007H2.97914C2.74234 26.7007 2.51523 26.7947 2.34779 26.9622C2.18035 27.1296 2.08628 27.3567 2.08628 27.5935C2.08628 27.8303 2.18035 28.0574 2.34779 28.2249C2.51523 28.3923 2.74234 28.4864 2.97914 28.4864H4.13628C3.57757 28.7948 3.1118 29.2475 2.78751 29.7971C2.46321 30.3468 2.29226 30.9734 2.29247 31.6116H3.18533C3.18533 33.0902 4.38533 34.2902 5.8639 34.2902C7.34247 34.2902 8.54247 33.0902 8.54247 31.6116H9.43533C9.43544 30.9734 9.26439 30.3468 8.94002 29.7971C8.61565 29.2474 8.14981 28.7948 7.59104 28.4864H20.2072C19.6485 28.7948 19.1826 29.2474 18.8583 29.7971C18.5339 30.3468 18.3628 30.9734 18.3629 31.6116H19.2558C19.269 32.3134 19.5571 32.982 20.0581 33.4736C20.5591 33.9652 21.2329 34.2406 21.9349 34.2406C22.6368 34.2406 23.3106 33.9652 23.8116 33.4736C24.3126 32.982 24.6007 32.3134 24.6139 31.6116H25.5068C25.5068 30.9734 25.3358 30.3469 25.0115 29.7973C24.6872 29.2476 24.2216 28.7949 23.6629 28.4864H25.301C26.0113 28.486 26.6924 28.2037 27.1947 27.7014C27.6969 27.1992 27.9792 26.5181 27.9796 25.8078C27.9795 25.456 27.9102 25.1076 27.7755 24.7826C27.6408 24.4576 27.4434 24.1623 27.1946 23.9136C26.9458 23.6648 26.6504 23.4676 26.3254 23.333C26.0003 23.1984 25.6519 23.1292 25.3001 23.1292H24.9682L26.1101 16.0292C26.4282 14.154 27.1139 10.103 27.2749 9.09542C27.3558 8.58637 27.4344 8.22875 27.7387 8.02827V8.39685H29.0782C29.1963 8.39647 29.3095 8.3494 29.3931 8.26591C29.4767 8.18242 29.5239 8.06927 29.5244 7.95113V6.16542C29.5241 6.04711 29.477 5.93372 29.3934 5.85002C29.3098 5.76632 29.1965 5.71913 29.0782 5.71875ZM5.8639 32.9511C5.50875 32.9508 5.16826 32.8095 4.91713 32.5584C4.666 32.3072 4.52475 31.9668 4.52437 31.6116H7.20295C7.20257 31.9667 7.06138 32.3071 6.81036 32.5582C6.55933 32.8093 6.21896 32.9506 5.8639 32.9511ZM21.9353 32.9511C21.5801 32.9509 21.2395 32.8097 20.9882 32.5585C20.737 32.3074 20.5957 31.9668 20.5953 31.6116H23.2748C23.2742 31.9667 23.1329 32.307 22.8818 32.5581C22.6307 32.8092 22.2904 32.9505 21.9353 32.9511ZM20.8368 12.8587C20.8525 12.7377 20.9111 12.6264 21.002 12.5449C21.0929 12.4635 21.21 12.4173 21.332 12.4149H24.1591C24.4049 12.4149 24.5758 12.613 24.5372 12.8564L24.2572 14.6521C24.2201 14.8949 23.9872 15.0935 23.741 15.0935H21.0444C20.9876 15.095 20.9312 15.0842 20.8789 15.0618C20.8267 15.0394 20.78 15.006 20.7419 14.9638C20.7039 14.9216 20.6754 14.8717 20.6585 14.8175C20.6416 14.7633 20.6366 14.706 20.6439 14.6497L20.8368 12.8587ZM20.3563 17.323C20.3723 17.2021 20.431 17.0909 20.5218 17.0095C20.6126 16.9281 20.7296 16.8819 20.8515 16.8792H23.4625C23.7087 16.8792 23.8791 17.0773 23.842 17.3207L23.631 18.6702C23.5934 18.913 23.361 19.1116 23.1149 19.1116H20.6115C20.5548 19.1129 20.4984 19.102 20.4463 19.0796C20.3942 19.0571 20.3475 19.0237 20.3095 18.9816C20.2714 18.9394 20.243 18.8896 20.226 18.8354C20.209 18.7813 20.2039 18.7241 20.211 18.6678L20.3563 17.323ZM3.27009 14.6602L2.81771 12.8483C2.75866 12.6092 2.91199 12.4149 3.15818 12.4149H6.51961C6.76628 12.4149 6.98866 12.6145 7.01485 12.8587L7.20723 14.6502C7.21437 14.7064 7.20929 14.7636 7.19233 14.8177C7.17537 14.8718 7.14693 14.9216 7.10896 14.9638C7.07099 15.0059 7.02438 15.0393 6.97231 15.0618C6.92024 15.0843 6.86393 15.0953 6.80723 15.094H3.8258C3.58009 15.094 3.32961 14.8983 3.27009 14.6602ZM4.82771 19.1116C4.58199 19.1116 4.33152 18.9164 4.27247 18.6783L3.93152 17.313C3.87199 17.074 4.02437 16.8797 4.27056 16.8797H6.99866C7.24485 16.8797 7.46771 17.0792 7.4939 17.3235L7.63866 18.6683C7.64588 18.7246 7.64085 18.7817 7.62393 18.8359C7.607 18.89 7.57857 18.9399 7.54058 18.982C7.50259 19.0242 7.45595 19.0576 7.40384 19.0801C7.35173 19.1025 7.29538 19.1134 7.23866 19.1121H4.82771V19.1116ZM7.67009 23.1297H5.82961C5.58247 23.1297 5.33342 22.9345 5.2739 22.6964L4.93295 21.3311C4.8739 21.0921 5.02628 20.8978 5.27295 20.8978H7.43009C7.67628 20.8978 7.89914 21.0973 7.92628 21.3416L8.07009 22.6864C8.07732 22.7426 8.07229 22.7998 8.05536 22.8539C8.03843 22.908 8.00999 22.9579 7.972 23C7.934 23.0421 7.88735 23.0755 7.83524 23.0979C7.78313 23.1203 7.72679 23.1311 7.67009 23.1297ZM13.1425 22.683C13.142 22.8015 13.0946 22.915 13.0108 22.9987C12.9269 23.0823 12.8133 23.1295 12.6949 23.1297H10.3658C10.2439 23.1272 10.1269 23.081 10.0361 22.9996C9.94531 22.9181 9.88675 22.8068 9.87104 22.6859L9.72628 21.3411C9.7189 21.2849 9.7238 21.2277 9.74064 21.1735C9.75748 21.1193 9.78586 21.0694 9.82382 21.0272C9.86179 20.985 9.90845 20.9516 9.96058 20.9292C10.0127 20.9067 10.0691 20.8959 10.1258 20.8973H12.6949C12.8134 20.8973 12.9271 20.9444 13.011 21.0281C13.0949 21.1118 13.1422 21.2254 13.1425 21.344V22.683ZM13.1425 18.6654C13.142 18.7839 13.0946 18.8974 13.0108 18.981C12.9269 19.0647 12.8133 19.1118 12.6949 19.1121H9.9339C9.68818 19.1121 9.46628 18.9126 9.43866 18.6683L9.29485 17.3235C9.28755 17.2673 9.29251 17.2101 9.30938 17.1559C9.32625 17.1018 9.35464 17.0519 9.39259 17.0098C9.43054 16.9676 9.47716 16.9342 9.52925 16.9117C9.58134 16.8893 9.63767 16.8783 9.69438 16.8797H12.6949C12.8134 16.8797 12.9271 16.9267 13.011 17.0105C13.0949 17.0942 13.1422 17.2078 13.1425 17.3264V18.6654ZM13.1425 14.6473C13.142 14.7658 13.0946 14.8793 13.0108 14.9629C12.9269 15.0466 12.8133 15.0937 12.6949 15.094H9.50342C9.3814 15.0916 9.2643 15.0455 9.17342 14.964C9.08253 14.8826 9.0239 14.7712 9.00818 14.6502L8.8158 12.8587C8.80858 12.8025 8.81361 12.7453 8.83054 12.6911C8.84747 12.637 8.8759 12.5871 8.91388 12.545C8.95187 12.5028 8.99851 12.4694 9.05062 12.447C9.10274 12.4245 9.15908 12.4136 9.2158 12.4149H12.6953C12.8139 12.4149 12.9276 12.462 13.0115 12.5457C13.0954 12.6294 13.1427 12.7431 13.1429 12.8616V14.6473H13.1425ZM17.9801 22.6859C17.9643 22.8069 17.9056 22.9182 17.8148 22.9996C17.7239 23.081 17.6068 23.1272 17.4848 23.1297H15.3801C15.2617 23.1295 15.1481 23.0823 15.0644 22.9986C14.9806 22.9149 14.9333 22.8015 14.9329 22.683V21.3435C14.9332 21.225 14.9804 21.1115 15.0642 21.0278C15.148 20.9441 15.2616 20.897 15.3801 20.8968H17.7248C17.9706 20.8968 18.1515 21.0964 18.1249 21.3407L17.9801 22.6859ZM18.4115 18.6678C18.3957 18.7888 18.337 18.9001 18.2462 18.9815C18.1553 19.0629 18.0383 19.1091 17.9163 19.1116H15.3801C15.2617 19.1114 15.1481 19.0642 15.0644 18.9805C14.9806 18.8968 14.9333 18.7834 14.9329 18.6649V17.3254C14.9332 17.2069 14.9804 17.0934 15.0642 17.0097C15.148 16.926 15.2616 16.8789 15.3801 16.8788H18.1563C18.4025 16.8788 18.5829 17.0783 18.5558 17.3226L18.4115 18.6678ZM18.8429 14.6502C18.8271 14.7712 18.7685 14.8825 18.6776 14.9639C18.5867 15.0453 18.4697 15.0915 18.3477 15.094H15.3801C15.2617 15.0937 15.1481 15.0466 15.0644 14.9629C14.9806 14.8792 14.9333 14.7658 14.9329 14.6473V12.8616C14.9332 12.7431 14.9804 12.6296 15.0642 12.5459C15.148 12.4622 15.2616 12.4151 15.3801 12.4149H18.6358C18.882 12.4149 19.0625 12.6145 19.0363 12.8587L18.8429 14.6502ZM22.2868 23.1297V23.1264L22.2829 23.1297H20.1801C20.1663 23.1297 20.1544 23.123 20.1406 23.1211C20.1382 23.1049 20.1382 23.0888 20.1353 23.0716L20.1144 23.1154C20.1202 23.117 20.1261 23.1182 20.132 23.1192C19.9125 23.094 19.7553 22.9126 19.7806 22.6859L19.9244 21.3411C19.9404 21.2202 19.9991 21.109 20.0899 21.0276C20.1807 20.9462 20.2977 20.9 20.4196 20.8973H22.8368C23.0829 20.8973 23.2525 21.0954 23.2153 21.3387L23.0044 22.6883C22.9677 22.9311 22.7353 23.1297 22.4891 23.1297H22.2868Z" fill="#0F55BB"/>
<path d="M44.6433 30.1143C42.83 30.1143 41.2529 29.7867 39.9119 29.1314C38.571 28.461 37.5424 27.5162 36.8262 26.2971C36.11 25.0781 35.7519 23.661 35.7519 22.0457C35.7519 19.8057 36.171 17.8171 37.0091 16.08C37.8624 14.3429 39.0129 13.0019 40.4605 12.0571C41.9081 11.0971 43.5157 10.6171 45.2833 10.6171C46.9291 10.6171 48.1786 11.0438 49.0319 11.8971C49.8853 12.7352 50.3119 13.8476 50.3119 15.2343C50.3119 16.1638 50.1443 16.9105 49.8091 17.4743C49.4891 18.0381 49.0243 18.32 48.4148 18.32C47.9881 18.32 47.6529 18.221 47.4091 18.0229C47.1653 17.8248 47.0433 17.5352 47.0433 17.1543C47.0433 17.0171 47.0738 16.7657 47.1348 16.4C47.2262 15.9429 47.2719 15.5771 47.2719 15.3029C47.2719 13.9162 46.5329 13.2229 45.0548 13.2229C44.0491 13.2229 43.0891 13.5505 42.1748 14.2057C41.2605 14.861 40.5214 15.8286 39.9576 17.1086C39.3938 18.3733 39.1119 19.8819 39.1119 21.6343C39.1119 23.4629 39.6224 24.88 40.6433 25.8857C41.6643 26.8762 43.1729 27.3714 45.1691 27.3714C46.1595 27.3714 47.1576 27.2495 48.1633 27.0057C49.1843 26.7467 50.3119 26.3581 51.5462 25.84C51.7748 25.7486 51.9653 25.7029 52.1176 25.7029C52.3614 25.7029 52.5443 25.7943 52.6662 25.9771C52.7881 26.16 52.8491 26.3962 52.8491 26.6857C52.8491 27.6152 52.3462 28.301 51.3405 28.7429C50.2586 29.2152 49.131 29.5657 47.9576 29.7943C46.7995 30.0076 45.6948 30.1143 44.6433 30.1143ZM61.0269 24.9029C61.225 24.9029 61.3774 24.9943 61.4841 25.1771C61.606 25.36 61.6669 25.6114 61.6669 25.9314C61.6669 26.541 61.5222 27.0133 61.2326 27.3486C60.6688 28.0343 59.8688 28.6667 58.8326 29.2457C57.8117 29.8248 56.7145 30.1143 55.5412 30.1143C53.9412 30.1143 52.6993 29.68 51.8155 28.8114C50.9317 27.9429 50.4898 26.7543 50.4898 25.2457C50.4898 24.1943 50.7107 23.219 51.1526 22.32C51.5945 21.4057 52.2041 20.6819 52.9812 20.1486C53.7736 19.6152 54.665 19.3486 55.6555 19.3486C56.5393 19.3486 57.2479 19.6152 57.7812 20.1486C58.3145 20.6667 58.5812 21.3752 58.5812 22.2743C58.5812 23.3257 58.2003 24.2324 57.4383 24.9943C56.6917 25.741 55.4193 26.3352 53.6212 26.7771C54.0022 27.4781 54.726 27.8286 55.7926 27.8286C56.4783 27.8286 57.2555 27.5924 58.1241 27.12C59.0079 26.6324 59.7698 26 60.4098 25.2229C60.5926 25.0095 60.7983 24.9029 61.0269 24.9029ZM55.2669 21.5886C54.7031 21.5886 54.2231 21.9162 53.8269 22.5714C53.446 23.2267 53.2555 24.019 53.2555 24.9486V24.9943C54.1545 24.781 54.8631 24.461 55.3812 24.0343C55.8993 23.6076 56.1583 23.1124 56.1583 22.5486C56.1583 22.259 56.0745 22.0305 55.9069 21.8629C55.7545 21.68 55.5412 21.5886 55.2669 21.5886ZM61.4287 30.1143C60.8497 30.1143 60.4382 29.8095 60.1944 29.2C59.9658 28.5905 59.8516 27.6152 59.8516 26.2743C59.8516 24.2933 60.1335 22.4114 60.6973 20.6286C60.8344 20.1867 61.0554 19.8667 61.3601 19.6686C61.6801 19.4552 62.122 19.3486 62.6858 19.3486C62.9906 19.3486 63.2039 19.3867 63.3258 19.4629C63.4478 19.539 63.5087 19.6838 63.5087 19.8971C63.5087 20.141 63.3944 20.6895 63.1658 21.5429C63.0135 22.1524 62.8916 22.6857 62.8001 23.1429C62.7087 23.6 62.6325 24.1638 62.5716 24.8343C63.0744 23.5238 63.6382 22.4571 64.263 21.6343C64.8878 20.8114 65.4973 20.2248 66.0916 19.8743C66.7011 19.5238 67.2573 19.3486 67.7601 19.3486C68.7506 19.3486 69.2458 19.8438 69.2458 20.8343C69.2458 21.4286 69.0782 22.5029 68.743 24.0571C68.4535 25.3829 68.3087 26.259 68.3087 26.6857C68.3087 27.2952 68.5297 27.6 68.9716 27.6C69.2763 27.6 69.6344 27.4171 70.0458 27.0514C70.4725 26.6705 71.0363 26.061 71.7373 25.2229C71.9201 25.0095 72.1258 24.9029 72.3544 24.9029C72.5525 24.9029 72.7049 24.9943 72.8116 25.1771C72.9335 25.36 72.9944 25.6114 72.9944 25.9314C72.9944 26.541 72.8497 27.0133 72.5601 27.3486C71.9049 28.1562 71.1963 28.819 70.4344 29.3371C69.6878 29.8552 68.8344 30.1143 67.8744 30.1143C67.0973 30.1143 66.5106 29.8933 66.1144 29.4514C65.7182 28.9943 65.5201 28.339 65.5201 27.4857C65.5201 27.059 65.6268 26.2971 65.8401 25.2C66.0382 24.24 66.1373 23.5771 66.1373 23.2114C66.1373 22.9676 66.0535 22.8457 65.8858 22.8457C65.6878 22.8457 65.4058 23.1048 65.0401 23.6229C64.6897 24.1257 64.3239 24.7962 63.943 25.6343C63.5773 26.4724 63.2801 27.3562 63.0516 28.2857C62.8839 29.0019 62.6858 29.4895 62.4573 29.7486C62.2439 29.9924 61.9011 30.1143 61.4287 30.1143ZM81.3394 24.9029C81.5375 24.9029 81.6899 24.9943 81.7966 25.1771C81.9185 25.36 81.9794 25.6114 81.9794 25.9314C81.9794 26.541 81.8347 27.0133 81.5451 27.3486C80.8899 28.1562 80.1737 28.819 79.3966 29.3371C78.6194 29.8552 77.728 30.1143 76.7223 30.1143C73.6137 30.1143 72.0594 27.9276 72.0594 23.5543C72.0594 22.8838 72.0823 22.2057 72.128 21.52H71.2366C70.7794 21.52 70.467 21.4362 70.2994 21.2686C70.147 21.101 70.0708 20.8343 70.0708 20.4686C70.0708 19.6152 70.4137 19.1886 71.0994 19.1886H72.4023C72.6613 17.5124 73.0575 15.981 73.5908 14.5943C74.1242 13.2076 74.7642 12.1029 75.5109 11.28C76.2728 10.4571 77.088 10.0457 77.9566 10.0457C78.5966 10.0457 79.0994 10.3276 79.4651 10.8914C79.8309 11.4552 80.0137 12.1638 80.0137 13.0171C80.0137 15.379 79.0232 17.4362 77.0423 19.1886H79.6023C79.8461 19.1886 80.0213 19.2419 80.128 19.3486C80.2347 19.4552 80.288 19.6533 80.288 19.9429C80.288 20.9943 79.427 21.52 77.7051 21.52H74.9166C74.8861 22.2819 74.8709 22.8762 74.8709 23.3029C74.8709 24.8876 75.0537 26 75.4194 26.64C75.8004 27.28 76.3947 27.6 77.2023 27.6C77.8575 27.6 78.4366 27.4019 78.9394 27.0057C79.4423 26.6095 80.0366 26.0152 80.7223 25.2229C80.9051 25.0095 81.1109 24.9029 81.3394 24.9029ZM77.3394 12.24C77.1109 12.24 76.8518 12.5295 76.5623 13.1086C76.288 13.6724 76.0213 14.4648 75.7623 15.4857C75.5185 16.4914 75.3128 17.6114 75.1451 18.8457C76.0442 18.0686 76.7147 17.2 77.1566 16.24C77.6137 15.2648 77.8423 14.381 77.8423 13.5886C77.8423 12.6895 77.6747 12.24 77.3394 12.24ZM81.7412 30.1143C81.1622 30.1143 80.7507 29.8095 80.5069 29.2C80.2783 28.5905 80.1641 27.6152 80.1641 26.2743C80.1641 24.2933 80.446 22.4114 81.0098 20.6286C81.1469 20.1867 81.3679 19.8667 81.6726 19.6686C81.9926 19.4552 82.4345 19.3486 82.9983 19.3486C83.3031 19.3486 83.5164 19.3867 83.6383 19.4629C83.7603 19.539 83.8212 19.6838 83.8212 19.8971C83.8212 20.141 83.7069 20.6895 83.4783 21.5429C83.326 22.1524 83.2041 22.6857 83.1126 23.1429C83.0212 23.6 82.945 24.1638 82.8841 24.8343C83.3869 23.5238 83.9507 22.4571 84.5755 21.6343C85.2003 20.8114 85.8098 20.2248 86.4041 19.8743C87.0136 19.5238 87.5698 19.3486 88.0726 19.3486C89.0631 19.3486 89.5583 19.8438 89.5583 20.8343C89.5583 21.0324 89.4898 21.5124 89.3526 22.2743C89.2307 22.8838 89.1698 23.2648 89.1698 23.4171C89.1698 23.9505 89.3603 24.2171 89.7412 24.2171C90.1679 24.2171 90.7164 23.8819 91.3869 23.2114C91.585 23.0133 91.7907 22.9143 92.0041 22.9143C92.2022 22.9143 92.3545 23.0057 92.4612 23.1886C92.5831 23.3562 92.6441 23.5848 92.6441 23.8743C92.6441 24.4381 92.4917 24.88 92.1869 25.2C91.7603 25.6419 91.2574 26.0229 90.6784 26.3429C90.1145 26.6476 89.5126 26.8 88.8726 26.8C88.065 26.8 87.4479 26.5943 87.0212 26.1829C86.6098 25.7714 86.4041 25.2152 86.4041 24.5143C86.4041 24.2857 86.4269 24.0571 86.4726 23.8286C86.5031 23.5238 86.5183 23.3181 86.5183 23.2114C86.5183 22.9676 86.4345 22.8457 86.2669 22.8457C86.0383 22.8457 85.7336 23.1048 85.3526 23.6229C84.9869 24.1257 84.6212 24.7962 84.2555 25.6343C83.8898 26.4724 83.5926 27.3562 83.3641 28.2857C83.1964 29.0019 82.9983 29.4895 82.7698 29.7486C82.5564 29.9924 82.2136 30.1143 81.7412 30.1143ZM93.1487 30.1143C92.2801 30.1143 91.5716 29.7714 91.023 29.0857C90.4897 28.4 90.223 27.501 90.223 26.3886C90.223 25.1695 90.5049 24.019 91.0687 22.9371C91.6325 21.84 92.3792 20.9638 93.3087 20.3086C94.2535 19.6381 95.2516 19.3029 96.303 19.3029C96.6382 19.3029 96.8592 19.3714 96.9659 19.5086C97.0878 19.6305 97.1868 19.859 97.263 20.1943C97.5525 20.1333 97.8725 20.1029 98.223 20.1029C98.5887 20.1029 98.8706 20.1943 99.0687 20.3771C99.2668 20.56 99.3659 20.819 99.3659 21.1543C99.3659 21.5048 99.2897 22.1143 99.1373 22.9829C98.9697 23.9124 98.8401 24.8038 98.7487 25.6571C98.6573 26.4952 98.6116 27.44 98.6116 28.4914C98.6116 29.0705 98.4897 29.4895 98.2459 29.7486C98.0173 29.9924 97.6363 30.1143 97.103 30.1143C96.5849 30.1143 96.1963 29.9924 95.9373 29.7486C95.6935 29.4895 95.5716 29.0781 95.5716 28.5143L95.5944 28.1486C95.122 29.459 94.3068 30.1143 93.1487 30.1143ZM94.0401 27.8057C94.4668 27.8057 94.8554 27.5086 95.2059 26.9143C95.5563 26.32 95.8687 25.261 96.143 23.7371L96.5773 21.4286C95.9525 21.4438 95.3735 21.6876 94.8401 22.16C94.3068 22.6171 93.8801 23.2267 93.5601 23.9886C93.2401 24.7505 93.0801 25.5581 93.0801 26.4114C93.0801 26.8686 93.1639 27.219 93.3316 27.4629C93.5144 27.6914 93.7506 27.8057 94.0401 27.8057Z" fill="#0F55BB"/>
</svg>
