<svg width="68" height="65" viewBox="0 0 68 65" fill="none" xmlns="http://www.w3.org/2000/svg">
<path d="M10.872 63.12C8.968 63.12 7.312 62.776 5.904 62.088C4.496 61.384 3.416 60.392 2.664 59.112C1.912 57.832 1.536 56.344 1.536 54.648C1.536 52.296 1.976 50.208 2.856 48.384C3.752 46.56 4.96 45.152 6.48 44.16C8 43.152 9.688 42.648 11.544 42.648C13.272 42.648 14.584 43.096 15.48 43.992C16.376 44.872 16.824 46.04 16.824 47.496C16.824 48.472 16.648 49.256 16.296 49.848C15.96 50.44 15.472 50.736 14.832 50.736C14.384 50.736 14.032 50.632 13.776 50.424C13.52 50.216 13.392 49.912 13.392 49.512C13.392 49.368 13.424 49.104 13.488 48.72C13.584 48.24 13.632 47.856 13.632 47.568C13.632 46.112 12.856 45.384 11.304 45.384C10.248 45.384 9.24 45.728 8.28 46.416C7.32 47.104 6.544 48.12 5.952 49.464C5.36 50.792 5.064 52.376 5.064 54.216C5.064 56.136 5.6 57.624 6.672 58.68C7.744 59.72 9.328 60.24 11.424 60.24C12.464 60.24 13.512 60.112 14.568 59.856C15.64 59.584 16.824 59.176 18.12 58.632C18.36 58.536 18.56 58.488 18.72 58.488C18.976 58.488 19.168 58.584 19.296 58.776C19.424 58.968 19.488 59.216 19.488 59.52C19.488 60.496 18.96 61.216 17.904 61.68C16.768 62.176 15.584 62.544 14.352 62.784C13.136 63.008 11.976 63.12 10.872 63.12ZM28.0748 57.648C28.2828 57.648 28.4428 57.744 28.5547 57.936C28.6828 58.128 28.7468 58.392 28.7468 58.728C28.7468 59.368 28.5948 59.864 28.2908 60.216C27.6988 60.936 26.8588 61.6 25.7708 62.208C24.6988 62.816 23.5468 63.12 22.3148 63.12C20.6348 63.12 19.3308 62.664 18.4028 61.752C17.4748 60.84 17.0107 59.592 17.0107 58.008C17.0107 56.904 17.2428 55.88 17.7068 54.936C18.1708 53.976 18.8108 53.216 19.6268 52.656C20.4588 52.096 21.3948 51.816 22.4348 51.816C23.3628 51.816 24.1068 52.096 24.6668 52.656C25.2268 53.2 25.5068 53.944 25.5068 54.888C25.5068 55.992 25.1068 56.944 24.3068 57.744C23.5228 58.528 22.1868 59.152 20.2988 59.616C20.6988 60.352 21.4588 60.72 22.5788 60.72C23.2988 60.72 24.1148 60.472 25.0268 59.976C25.9548 59.464 26.7548 58.8 27.4268 57.984C27.6188 57.76 27.8348 57.648 28.0748 57.648ZM22.0268 54.168C21.4348 54.168 20.9308 54.512 20.5148 55.2C20.1148 55.888 19.9148 56.72 19.9148 57.696V57.744C20.8588 57.52 21.6028 57.184 22.1468 56.736C22.6908 56.288 22.9628 55.768 22.9628 55.176C22.9628 54.872 22.8748 54.632 22.6988 54.456C22.5388 54.264 22.3148 54.168 22.0268 54.168ZM28.4966 63.12C27.8886 63.12 27.4566 62.8 27.2006 62.16C26.9606 61.52 26.8406 60.496 26.8406 59.088C26.8406 57.008 27.1366 55.032 27.7286 53.16C27.8726 52.696 28.1046 52.36 28.4246 52.152C28.7606 51.928 29.2246 51.816 29.8166 51.816C30.1366 51.816 30.3606 51.856 30.4886 51.936C30.6166 52.016 30.6806 52.168 30.6806 52.392C30.6806 52.648 30.5606 53.224 30.3206 54.12C30.1606 54.76 30.0326 55.32 29.9366 55.8C29.8406 56.28 29.7606 56.872 29.6966 57.576C30.2246 56.2 30.8166 55.08 31.4726 54.216C32.1286 53.352 32.7686 52.736 33.3926 52.368C34.0326 52 34.6166 51.816 35.1446 51.816C36.1846 51.816 36.7046 52.336 36.7046 53.376C36.7046 54 36.5286 55.128 36.1766 56.76C35.8726 58.152 35.7206 59.072 35.7206 59.52C35.7206 60.16 35.9526 60.48 36.4166 60.48C36.7366 60.48 37.1126 60.288 37.5446 59.904C37.9926 59.504 38.5846 58.864 39.3206 57.984C39.5126 57.76 39.7286 57.648 39.9686 57.648C40.1766 57.648 40.3366 57.744 40.4486 57.936C40.5766 58.128 40.6406 58.392 40.6406 58.728C40.6406 59.368 40.4886 59.864 40.1846 60.216C39.4966 61.064 38.7526 61.76 37.9526 62.304C37.1686 62.848 36.2726 63.12 35.2646 63.12C34.4486 63.12 33.8326 62.888 33.4166 62.424C33.0006 61.944 32.7926 61.256 32.7926 60.36C32.7926 59.912 32.9046 59.112 33.1286 57.96C33.3366 56.952 33.4406 56.256 33.4406 55.872C33.4406 55.616 33.3526 55.488 33.1766 55.488C32.9686 55.488 32.6726 55.76 32.2886 56.304C31.9206 56.832 31.5366 57.536 31.1366 58.416C30.7526 59.296 30.4406 60.224 30.2006 61.2C30.0246 61.952 29.8166 62.464 29.5766 62.736C29.3526 62.992 28.9926 63.12 28.4966 63.12ZM49.4029 57.648C49.6109 57.648 49.7709 57.744 49.8829 57.936C50.0109 58.128 50.0749 58.392 50.0749 58.728C50.0749 59.368 49.9229 59.864 49.6189 60.216C48.9309 61.064 48.1789 61.76 47.3629 62.304C46.5469 62.848 45.6109 63.12 44.5549 63.12C41.2909 63.12 39.6589 60.824 39.6589 56.232C39.6589 55.528 39.6829 54.816 39.7309 54.096H38.7949C38.3149 54.096 37.9869 54.008 37.8109 53.832C37.6509 53.656 37.5709 53.376 37.5709 52.992C37.5709 52.096 37.9309 51.648 38.6509 51.648H40.0189C40.2909 49.888 40.7069 48.28 41.2669 46.824C41.8269 45.368 42.4989 44.208 43.2829 43.344C44.0829 42.48 44.9389 42.048 45.8509 42.048C46.5229 42.048 47.0509 42.344 47.4349 42.936C47.8189 43.528 48.0109 44.272 48.0109 45.168C48.0109 47.648 46.9709 49.808 44.8909 51.648H47.5789C47.8349 51.648 48.0189 51.704 48.1309 51.816C48.2429 51.928 48.2989 52.136 48.2989 52.44C48.2989 53.544 47.3949 54.096 45.5869 54.096H42.6589C42.6269 54.896 42.6109 55.52 42.6109 55.968C42.6109 57.632 42.8029 58.8 43.1869 59.472C43.5869 60.144 44.2109 60.48 45.0589 60.48C45.7469 60.48 46.3549 60.272 46.8829 59.856C47.4109 59.44 48.0349 58.816 48.7549 57.984C48.9469 57.76 49.1629 57.648 49.4029 57.648ZM45.2029 44.352C44.9629 44.352 44.6909 44.656 44.3869 45.264C44.0989 45.856 43.8189 46.688 43.5469 47.76C43.2909 48.816 43.0749 49.992 42.8989 51.288C43.8429 50.472 44.5469 49.56 45.0109 48.552C45.4909 47.528 45.7309 46.6 45.7309 45.768C45.7309 44.824 45.5549 44.352 45.2029 44.352ZM49.8248 63.12C49.2168 63.12 48.7848 62.8 48.5288 62.16C48.2888 61.52 48.1688 60.496 48.1688 59.088C48.1688 57.008 48.4648 55.032 49.0568 53.16C49.2008 52.696 49.4328 52.36 49.7528 52.152C50.0888 51.928 50.5528 51.816 51.1448 51.816C51.4648 51.816 51.6888 51.856 51.8168 51.936C51.9448 52.016 52.0088 52.168 52.0088 52.392C52.0088 52.648 51.8888 53.224 51.6488 54.12C51.4888 54.76 51.3608 55.32 51.2648 55.8C51.1688 56.28 51.0888 56.872 51.0248 57.576C51.5528 56.2 52.1448 55.08 52.8008 54.216C53.4568 53.352 54.0968 52.736 54.7208 52.368C55.3608 52 55.9448 51.816 56.4728 51.816C57.5128 51.816 58.0328 52.336 58.0328 53.376C58.0328 53.584 57.9608 54.088 57.8168 54.888C57.6888 55.528 57.6248 55.928 57.6248 56.088C57.6248 56.648 57.8248 56.928 58.2248 56.928C58.6728 56.928 59.2488 56.576 59.9528 55.872C60.1608 55.664 60.3768 55.56 60.6008 55.56C60.8088 55.56 60.9688 55.656 61.0807 55.848C61.2088 56.024 61.2728 56.264 61.2728 56.568C61.2728 57.16 61.1128 57.624 60.7928 57.96C60.3448 58.424 59.8168 58.824 59.2088 59.16C58.6168 59.48 57.9848 59.64 57.3128 59.64C56.4648 59.64 55.8168 59.424 55.3688 58.992C54.9368 58.56 54.7208 57.976 54.7208 57.24C54.7208 57 54.7448 56.76 54.7928 56.52C54.8248 56.2 54.8408 55.984 54.8408 55.872C54.8408 55.616 54.7528 55.488 54.5768 55.488C54.3368 55.488 54.0168 55.76 53.6168 56.304C53.2328 56.832 52.8488 57.536 52.4648 58.416C52.0808 59.296 51.7688 60.224 51.5288 61.2C51.3528 61.952 51.1448 62.464 50.9048 62.736C50.6808 62.992 50.3208 63.12 49.8248 63.12ZM61.8026 63.12C60.8906 63.12 60.1466 62.76 59.5706 62.04C59.0106 61.32 58.7306 60.376 58.7306 59.208C58.7306 57.928 59.0266 56.72 59.6186 55.584C60.2106 54.432 60.9946 53.512 61.9706 52.824C62.9626 52.12 64.0106 51.768 65.1146 51.768C65.4666 51.768 65.6986 51.84 65.8106 51.984C65.9386 52.112 66.0426 52.352 66.1226 52.704C66.4266 52.64 66.7626 52.608 67.1306 52.608C67.5146 52.608 67.8106 52.704 68.0186 52.896C68.2266 53.088 68.3306 53.36 68.3306 53.712C68.3306 54.08 68.2506 54.72 68.0906 55.632C67.9146 56.608 67.7786 57.544 67.6826 58.44C67.5866 59.32 67.5386 60.312 67.5386 61.416C67.5386 62.024 67.4106 62.464 67.1546 62.736C66.9146 62.992 66.5146 63.12 65.9546 63.12C65.4106 63.12 65.0026 62.992 64.7306 62.736C64.4746 62.464 64.3466 62.032 64.3466 61.44L64.3706 61.056C63.8746 62.432 63.0186 63.12 61.8026 63.12ZM62.7386 60.696C63.1866 60.696 63.5946 60.384 63.9626 59.76C64.3306 59.136 64.6586 58.024 64.9466 56.424L65.4026 54C64.7466 54.016 64.1386 54.272 63.5786 54.768C63.0186 55.248 62.5706 55.888 62.2346 56.688C61.8986 57.488 61.7306 58.336 61.7306 59.232C61.7306 59.712 61.8186 60.08 61.9946 60.336C62.1866 60.576 62.4346 60.696 62.7386 60.696Z" fill="#0F55BB"/>
<path d="M52.5313 1H51.1248V1.448C49.1668 1.886 48.8853 3.7035 48.7748 4.398C48.7223 4.7265 48.6158 5.369 48.4838 6.156H23.9938C23.0248 6.156 22.9163 7.0615 23.0428 7.5625L25.9158 20.246C26.0418 20.747 26.5723 21.156 27.0923 21.156H48.5643C49.0813 21.156 49.5028 21.5765 49.5028 22.0935C49.5028 22.6105 49.0813 23.031 48.5643 23.031H25.1273C24.8787 23.031 24.6402 23.1298 24.4644 23.3056C24.2886 23.4814 24.1898 23.7199 24.1898 23.9685C24.1898 24.2171 24.2886 24.4556 24.4644 24.6314C24.6402 24.8072 24.8787 24.906 25.1273 24.906H26.3423C25.7557 25.2299 25.2666 25.7052 24.9261 26.2823C24.5856 26.8595 24.4061 27.5174 24.4063 28.1875H25.3438C25.3438 29.74 26.6038 31 28.1563 31C29.7088 31 30.9688 29.74 30.9688 28.1875H31.9063C31.9064 27.5173 31.7268 26.8594 31.3862 26.2823C31.0456 25.7051 30.5565 25.2299 29.9698 24.906H43.2168C42.6301 25.2299 42.141 25.7051 41.8004 26.2823C41.4598 26.8594 41.2802 27.5173 41.2803 28.1875H42.2178C42.2317 28.9244 42.5342 29.6264 43.0602 30.1426C43.5862 30.6588 44.2938 30.948 45.0308 30.948C45.7678 30.948 46.4754 30.6588 47.0014 30.1426C47.5274 29.6264 47.8299 28.9244 47.8438 28.1875H48.7813C48.7814 27.5174 48.6018 26.8596 48.2613 26.2824C47.9208 25.7053 47.4319 25.23 46.8453 24.906H48.5653C49.3111 24.9056 50.0262 24.6092 50.5536 24.0818C51.081 23.5544 51.3774 22.8393 51.3778 22.0935C51.3777 21.7241 51.3049 21.3583 51.1635 21.017C51.0221 20.6758 50.8148 20.3657 50.5535 20.1046C50.2923 19.8434 49.9822 19.6362 49.6408 19.4949C49.2995 19.3536 48.9337 19.2809 48.5643 19.281H48.2158L49.4148 11.826C49.7488 9.857 50.4688 5.6035 50.6378 4.5455C50.7228 4.011 50.8053 3.6355 51.1248 3.425V3.812H52.5313C52.6554 3.81161 52.7742 3.76219 52.862 3.67452C52.9497 3.58685 52.9993 3.46805 52.9998 3.344V1.469C52.9995 1.34478 52.9501 1.22572 52.8623 1.13783C52.7745 1.04995 52.6555 1.0004 52.5313 1ZM28.1563 29.594C27.7834 29.5936 27.4259 29.4453 27.1622 29.1816C26.8985 28.9179 26.7502 28.5604 26.7498 28.1875H29.5623C29.5619 28.5603 29.4137 28.9178 29.1501 29.1814C28.8865 29.4451 28.5291 29.5935 28.1563 29.594ZM45.0313 29.594C44.6583 29.5937 44.3007 29.4455 44.0369 29.1818C43.7731 28.9181 43.6247 28.5605 43.6243 28.1875H46.4378C46.4371 28.5603 46.2888 28.9177 46.0251 29.1813C45.7615 29.4449 45.4041 29.5933 45.0313 29.594ZM43.8778 8.497C43.8943 8.36992 43.9559 8.25299 44.0513 8.16747C44.1467 8.08195 44.2697 8.03353 44.3978 8.031H47.3663C47.6243 8.031 47.8038 8.239 47.7633 8.4945L47.4693 10.38C47.4303 10.635 47.1858 10.8435 46.9273 10.8435H44.0958C44.0362 10.8451 43.9769 10.8337 43.9221 10.8102C43.8673 10.7867 43.8182 10.7516 43.7783 10.7073C43.7383 10.663 43.7084 10.6106 43.6906 10.5537C43.6729 10.4968 43.6676 10.4366 43.6753 10.3775L43.8778 8.497ZM43.3733 13.1845C43.3901 13.0575 43.4518 12.9408 43.5471 12.8553C43.6425 12.7699 43.7653 12.7213 43.8933 12.7185H46.6348C46.8933 12.7185 47.0723 12.9265 47.0333 13.182L46.8118 14.599C46.7723 14.854 46.5283 15.0625 46.2698 15.0625H43.6413C43.5817 15.0639 43.5226 15.0524 43.4678 15.0289C43.4131 15.0053 43.3641 14.9702 43.3242 14.926C43.2842 14.8817 43.2543 14.8294 43.2365 14.7725C43.2187 14.7157 43.2133 14.6556 43.2208 14.5965L43.3733 13.1845ZM25.4328 10.3885L24.9578 8.486C24.8958 8.235 25.0568 8.031 25.3153 8.031H28.8448C29.1038 8.031 29.3373 8.2405 29.3648 8.497L29.5668 10.378C29.5743 10.4371 29.569 10.4971 29.5512 10.5539C29.5334 10.6107 29.5035 10.663 29.4636 10.7073C29.4238 10.7515 29.3748 10.7866 29.3201 10.8102C29.2655 10.8338 29.2063 10.8453 29.1468 10.844H26.0163C25.7583 10.844 25.4953 10.6385 25.4328 10.3885ZM27.0683 15.0625C26.8103 15.0625 26.5473 14.8575 26.4853 14.6075L26.1273 13.174C26.0648 12.923 26.2248 12.719 26.4833 12.719H29.3478C29.6063 12.719 29.8403 12.9285 29.8678 13.185L30.0198 14.597C30.0274 14.6561 30.0221 14.7161 30.0043 14.773C29.9866 14.8298 29.9567 14.8822 29.9168 14.9265C29.8769 14.9707 29.828 15.0058 29.7732 15.0294C29.7185 15.053 29.6594 15.0644 29.5998 15.063H27.0683V15.0625ZM30.0528 19.2815H28.1203C27.8608 19.2815 27.5993 19.0765 27.5368 18.8265L27.1788 17.393C27.1168 17.142 27.2768 16.938 27.5358 16.938H29.8008C30.0593 16.938 30.2933 17.1475 30.3218 17.404L30.4728 18.816C30.4804 18.8751 30.4751 18.9351 30.4573 18.9919C30.4396 19.0488 30.4097 19.1011 30.3698 19.1453C30.3299 19.1895 30.2809 19.2246 30.2262 19.2481C30.1715 19.2716 30.1123 19.283 30.0528 19.2815ZM35.7988 18.8125C35.7983 18.9369 35.7486 19.056 35.6605 19.1439C35.5725 19.2318 35.4532 19.2812 35.3288 19.2815H32.8833C32.7553 19.2789 32.6324 19.2304 32.5371 19.1449C32.4418 19.0594 32.3803 18.9425 32.3638 18.8155L32.2118 17.4035C32.2041 17.3444 32.2092 17.2844 32.2269 17.2275C32.2446 17.1706 32.2744 17.1182 32.3142 17.0739C32.3541 17.0296 32.4031 16.9945 32.4578 16.9709C32.5126 16.9474 32.5717 16.936 32.6313 16.9375H35.3288C35.4533 16.9375 35.5727 16.9869 35.6608 17.0748C35.7489 17.1627 35.7985 17.282 35.7988 17.4065V18.8125ZM35.7988 14.594C35.7983 14.7184 35.7486 14.8375 35.6605 14.9254C35.5725 15.0133 35.4532 15.0627 35.3288 15.063H32.4298C32.1718 15.063 31.9388 14.8535 31.9098 14.597L31.7588 13.185C31.7512 13.1259 31.7564 13.0659 31.7741 13.0091C31.7918 12.9522 31.8216 12.8998 31.8614 12.8556C31.9013 12.8113 31.9502 12.7762 32.0049 12.7526C32.0596 12.729 32.1188 12.7176 32.1783 12.719H35.3288C35.4533 12.719 35.5727 12.7684 35.6608 12.8563C35.7489 12.9442 35.7985 13.0635 35.7988 13.188V14.594ZM35.7988 10.375C35.7983 10.4994 35.7486 10.6185 35.6605 10.7064C35.5725 10.7943 35.4532 10.8437 35.3288 10.844H31.9778C31.8497 10.8415 31.7267 10.793 31.6313 10.7075C31.5359 10.622 31.4743 10.5051 31.4578 10.378L31.2558 8.497C31.2482 8.43791 31.2535 8.37788 31.2713 8.32101C31.2891 8.26415 31.3189 8.2118 31.3588 8.16755C31.3987 8.12329 31.4477 8.08818 31.5024 8.06461C31.5571 8.04104 31.6163 8.02958 31.6758 8.031H35.3293C35.4538 8.031 35.5732 8.08038 35.6613 8.16831C35.7494 8.25623 35.799 8.37552 35.7993 8.5V10.375H35.7988ZM40.8783 18.8155C40.8617 18.9425 40.8001 19.0594 40.7047 19.1449C40.6093 19.2304 40.4864 19.2789 40.3583 19.2815H38.1483C38.024 19.2812 37.9048 19.2318 37.8168 19.1439C37.7288 19.056 37.6792 18.9369 37.6788 18.8125V17.406C37.6791 17.2816 37.7286 17.1624 37.8166 17.0745C37.9047 16.9866 38.0239 16.9371 38.1483 16.937H40.6103C40.8683 16.937 41.0583 17.1465 41.0303 17.403L40.8783 18.8155ZM41.3313 14.5965C41.3147 14.7235 41.2531 14.8404 41.1577 14.9259C41.0623 15.0114 40.9394 15.0599 40.8113 15.0625H38.1483C38.024 15.0622 37.9048 15.0128 37.8168 14.9249C37.7288 14.837 37.6792 14.7179 37.6788 14.5935V13.187C37.6791 13.0626 37.7286 12.9434 37.8166 12.8555C37.9047 12.7676 38.0239 12.7181 38.1483 12.718H41.0633C41.3218 12.718 41.5113 12.9275 41.4828 13.184L41.3313 14.5965ZM41.7843 10.378C41.7677 10.505 41.7061 10.6219 41.6107 10.7074C41.5153 10.7929 41.3924 10.8414 41.2643 10.844H38.1483C38.024 10.8437 37.9048 10.7943 37.8168 10.7064C37.7288 10.6185 37.6792 10.4994 37.6788 10.375V8.5C37.6791 8.37561 37.7286 8.25639 37.8166 8.16848C37.9047 8.08057 38.0239 8.03113 38.1483 8.031H41.5668C41.8253 8.031 42.0148 8.2405 41.9873 8.497L41.7843 10.378ZM45.4003 19.2815V19.278L45.3963 19.2815H43.1883C43.1738 19.2815 43.1613 19.2745 43.1468 19.2725C43.1443 19.2555 43.1443 19.2385 43.1413 19.2205L43.1193 19.2665C43.1254 19.2681 43.1316 19.2695 43.1378 19.2705C42.9073 19.244 42.7423 19.0535 42.7688 18.8155L42.9198 17.4035C42.9366 17.2765 42.9983 17.1598 43.0936 17.0743C43.189 16.9889 43.3118 16.9403 43.4398 16.9375H45.9778C46.2363 16.9375 46.4143 17.1455 46.3753 17.401L46.1538 18.818C46.1153 19.073 45.8713 19.2815 45.6128 19.2815H45.4003Z" fill="#0F55BB"/>
</svg>
