<svg width="360" height="305" viewBox="0 0 360 305" fill="none" xmlns="http://www.w3.org/2000/svg">
<g clip-path="url(#clip0_1405_18772)">
<rect width="360" height="304.959" rx="5.63601" fill="white"/>
<path d="M36.0899 38.7656H30.1869V29.0879H36.0899V30.2926H31.4987V33.3177H35.6348V34.4823H31.4987V37.5475H36.0899V38.7656ZM40.018 38.9263C38.6125 38.9263 37.7826 38.1365 37.7826 36.9452C37.7826 35.7405 38.6795 34.9909 40.2188 34.8704L42.2802 34.7098V34.5224C42.2802 33.4248 41.6243 33.0366 40.7408 33.0366C39.6834 33.0366 39.081 33.5051 39.081 34.2949H37.9834C37.9834 32.9295 39.1078 32.0327 40.7944 32.0327C42.414 32.0327 43.5116 32.8894 43.5116 34.6563V38.7656H42.4408L42.3069 37.7082C41.9723 38.4578 41.0755 38.9263 40.018 38.9263ZM40.3794 37.9491C41.5707 37.9491 42.2936 37.1727 42.2936 35.9413V35.5933L40.6204 35.7271C39.5094 35.8342 39.0543 36.2625 39.0543 36.905C39.0543 37.6011 39.5629 37.9491 40.3794 37.9491ZM49.3294 32.1666V33.3177H48.7672C47.5759 33.3177 46.8397 34.0405 46.8397 35.2988V38.7656H45.5815V32.2335H46.7594L46.8397 33.224C47.1074 32.5414 47.7633 32.0863 48.6602 32.0863C48.8877 32.0863 49.0751 32.113 49.3294 32.1666ZM52.0951 38.7656H50.8369V32.2201H51.9746L52.1085 33.224C52.5234 32.4744 53.3533 32.0327 54.2769 32.0327C56.0037 32.0327 56.7934 33.0902 56.7934 34.7634V38.7656H55.5352V35.0445C55.5352 33.7193 54.9195 33.1839 53.9557 33.1839C52.7778 33.1839 52.0951 34.0272 52.0951 35.2988V38.7656ZM59.4792 30.6674C59.0241 30.6674 58.6493 30.2926 58.6493 29.8375C58.6493 29.369 59.0241 29.0076 59.4792 29.0076C59.9343 29.0076 60.3091 29.369 60.3091 29.8375C60.3091 30.2926 59.9343 30.6674 59.4792 30.6674ZM58.8635 38.7656V32.2201H60.1217V38.7656H58.8635ZM63.534 38.7656H62.2757V32.2201H63.4135L63.5474 33.224C63.9623 32.4744 64.7922 32.0327 65.7158 32.0327C67.4425 32.0327 68.2323 33.0902 68.2323 34.7634V38.7656H66.9741V35.0445C66.9741 33.7193 66.3583 33.1839 65.3946 33.1839C64.2166 33.1839 63.534 34.0272 63.534 35.2988V38.7656ZM69.8874 35.3255C69.8874 33.4783 71.0787 32.0327 72.9794 32.0327C74.0369 32.0327 74.8534 32.5146 75.2684 33.3311L75.3621 32.2201H76.4864V38.4979C76.4864 40.5593 75.2148 41.8711 73.207 41.8711C71.4267 41.8711 70.2086 40.8672 69.9677 39.2073H71.2259C71.3866 40.1711 72.1094 40.7333 73.207 40.7333C74.4385 40.7333 75.2416 39.9302 75.2416 38.6853V37.3735C74.8133 38.1365 73.9566 38.5916 72.9259 38.5916C71.0653 38.5916 69.8874 37.1594 69.8874 35.3255ZM71.1456 35.2988C71.1456 36.5302 71.9086 37.494 73.1401 37.494C74.4117 37.494 75.1881 36.5838 75.1881 35.2988C75.1881 34.0405 74.4385 33.1303 73.1535 33.1303C71.8952 33.1303 71.1456 34.0941 71.1456 35.2988ZM78.0942 36.8649H79.2989C79.2989 37.5342 79.8075 37.9357 80.6374 37.9357C81.5209 37.9357 82.0295 37.5743 82.0295 36.972C82.0295 36.5302 81.8153 36.2625 81.1327 36.0885L79.9815 35.8208C78.817 35.5397 78.2682 34.9641 78.2682 34.0004C78.2682 32.7957 79.2855 32.0327 80.7311 32.0327C82.1634 32.0327 83.1004 32.8358 83.1271 34.0807H81.9224C81.8957 33.4248 81.4539 33.0099 80.691 33.0099C79.9012 33.0099 79.4595 33.3579 79.4595 33.9602C79.4595 34.4019 79.7807 34.6964 80.4233 34.8571L81.5744 35.1381C82.6854 35.4059 83.2342 35.9145 83.2342 36.8917C83.2342 38.1365 82.1634 38.9263 80.6107 38.9263C79.0713 38.9263 78.0942 38.1097 78.0942 36.8649ZM97.8858 33.9201C97.8858 36.8649 95.9583 38.9263 93.2143 38.9263C90.4836 38.9263 88.5829 36.8649 88.5829 33.9201C88.5829 30.9886 90.497 28.9139 93.2277 28.9139C95.9717 28.9139 97.8858 30.9753 97.8858 33.9201ZM96.5071 33.9201C96.5071 31.6713 95.1953 30.1855 93.2277 30.1855C91.26 30.1855 89.9616 31.6713 89.9616 33.9201C89.9616 36.1688 91.26 37.668 93.2277 37.668C95.1953 37.668 96.5071 36.1554 96.5071 33.9201ZM101.511 38.7656L98.8736 32.2201H100.212L101.644 35.8744C101.872 36.4901 102.059 37.0389 102.166 37.4405C102.274 37.0121 102.488 36.4499 102.715 35.8744L104.174 32.2201H105.486L102.755 38.7656H101.511ZM109.338 38.9263C107.411 38.9263 106.085 37.5342 106.085 35.4996C106.085 33.4516 107.384 32.0327 109.285 32.0327C111.145 32.0327 112.363 33.3177 112.363 35.2586V35.7271L107.304 35.7405C107.397 37.1192 108.12 37.8822 109.365 37.8822C110.342 37.8822 110.985 37.4806 111.199 36.731H112.377C112.055 38.1365 110.958 38.9263 109.338 38.9263ZM109.285 33.0902C108.187 33.0902 107.491 33.7461 107.33 34.8972L111.105 34.8972C111.105 33.813 110.396 33.0902 109.285 33.0902ZM117.844 32.1666V33.3177H117.282C116.09 33.3177 115.354 34.0405 115.354 35.2988V38.7656H114.096V32.2335H115.274L115.354 33.224C115.622 32.5414 116.278 32.0863 117.175 32.0863C117.402 32.0863 117.59 32.113 117.844 32.1666ZM121.381 38.7656L118.744 32.2201H120.083L121.515 35.8744C121.743 36.4901 121.93 37.0389 122.037 37.4405C122.144 37.0121 122.358 36.4499 122.586 35.8744L124.045 32.2201H125.357L122.626 38.7656H121.381ZM127.301 30.6674C126.846 30.6674 126.471 30.2926 126.471 29.8375C126.471 29.369 126.846 29.0076 127.301 29.0076C127.756 29.0076 128.131 29.369 128.131 29.8375C128.131 30.2926 127.756 30.6674 127.301 30.6674ZM126.685 38.7656V32.2201H127.943V38.7656H126.685ZM132.922 38.9263C130.994 38.9263 129.669 37.5342 129.669 35.4996C129.669 33.4516 130.967 32.0327 132.868 32.0327C134.729 32.0327 135.947 33.3177 135.947 35.2586V35.7271L130.887 35.7405C130.981 37.1192 131.704 37.8822 132.949 37.8822C133.926 37.8822 134.568 37.4806 134.782 36.731H135.96C135.639 38.1365 134.541 38.9263 132.922 38.9263ZM132.868 33.0902C131.771 33.0902 131.075 33.7461 130.914 34.8972H134.689C134.689 33.813 133.979 33.0902 132.868 33.0902ZM138.863 38.7656L136.721 32.2201H138.02L139.104 35.62C139.251 36.1019 139.385 36.5972 139.505 37.1727C139.612 36.5972 139.786 36.0484 139.934 35.62L141.031 32.2201H142.316L143.401 35.62C143.508 35.9413 143.722 36.7043 143.829 37.1727C143.936 36.6507 144.056 36.1956 144.244 35.62L145.341 32.2201H146.653L144.418 38.7656H143.227L142.089 35.2586C141.875 34.6027 141.741 34.0941 141.674 33.7327C141.607 34.0539 141.486 34.4823 141.245 35.272L140.108 38.7656H138.863Z" fill="#0F55BB"/>
<g filter="url(#filter0_d_1405_18772)">
<rect x="233.719" y="16.9062" width="97.2211" height="33.726" rx="5.63601" fill="#FCFCFD"/>
<rect x="234.071" y="17.2585" width="96.5166" height="33.0215" rx="5.28376" stroke="#D0D5DD" stroke-width="0.704501"/>
<path d="M245.034 31.2081V37.1612H248.047V37.7656H244.375V31.2081H245.034ZM249.987 37.8755C249.044 37.8755 248.485 37.3443 248.485 36.5659C248.485 35.7508 249.108 35.2379 250.143 35.1554L251.608 35.0364V34.8899C251.608 34.0198 251.086 33.745 250.436 33.745C249.667 33.745 249.209 34.0931 249.209 34.6884H248.632C248.632 33.7908 249.364 33.2138 250.454 33.2138C251.48 33.2138 252.231 33.7267 252.231 34.899V37.7656H251.7L251.617 36.9872C251.343 37.5458 250.738 37.8755 249.987 37.8755ZM250.134 37.3627C251.068 37.3627 251.608 36.7124 251.608 35.7508V35.5126L250.299 35.6134C249.465 35.6866 249.126 36.053 249.126 36.5475C249.126 37.0879 249.529 37.3627 250.134 37.3627ZM252.94 36.5201H253.545C253.545 37.0329 253.93 37.3535 254.552 37.3535C255.239 37.3535 255.642 37.0604 255.642 36.5842C255.642 36.2178 255.459 36.0072 254.937 35.879L254.177 35.6866C253.407 35.4943 253.032 35.0913 253.032 34.4869C253.032 33.7084 253.682 33.2138 254.635 33.2138C255.569 33.2138 256.173 33.7267 256.201 34.551H255.587C255.569 34.0381 255.212 33.7359 254.616 33.7359C253.994 33.7359 253.646 34.0015 253.646 34.4777C253.646 34.8166 253.884 35.0547 254.369 35.1738L255.129 35.3661C255.899 35.5584 256.247 35.9156 256.247 36.5567C256.247 37.3535 255.569 37.8755 254.561 37.8755C253.563 37.8755 252.94 37.3443 252.94 36.5201ZM258.12 37.7656H257.498V33.8641H256.609V33.3329H257.498V31.9317H258.12V33.3329H259.009V33.8641H258.12V37.7656ZM261.428 31.2081H265.889V31.8126L263.306 37.7656H262.628L265.22 31.8126H261.428V31.2081ZM270.534 37.8755C269.243 37.8755 268.483 36.8864 268.483 35.5584C268.483 34.2213 269.243 33.2138 270.562 33.2138C271.294 33.2138 271.881 33.5344 272.192 34.1755V31.0891H272.824V37.7656H272.274L272.21 36.8589C271.899 37.5458 271.276 37.8755 270.534 37.8755ZM270.644 37.2985C271.615 37.2985 272.183 36.5659 272.183 35.5401C272.183 34.5235 271.615 33.7817 270.644 33.7817C269.683 33.7817 269.124 34.5235 269.124 35.5401C269.124 36.5659 269.683 37.2985 270.644 37.2985ZM275.232 37.8755C274.289 37.8755 273.73 37.3443 273.73 36.5659C273.73 35.7508 274.353 35.2379 275.388 35.1554L276.854 35.0364V34.8899C276.854 34.0198 276.331 33.745 275.681 33.745C274.912 33.745 274.454 34.0931 274.454 34.6884H273.877C273.877 33.7908 274.61 33.2138 275.7 33.2138C276.725 33.2138 277.476 33.7267 277.476 34.899V37.7656H276.945L276.863 36.9872C276.588 37.5458 275.983 37.8755 275.232 37.8755ZM275.379 37.3627C276.313 37.3627 276.854 36.7124 276.854 35.7508V35.5126L275.544 35.6134C274.71 35.6866 274.372 36.053 274.372 36.5475C274.372 37.0879 274.775 37.3627 275.379 37.3627ZM278.014 39.6981V39.176H278.499C278.884 39.176 279.269 39.1486 279.489 38.5533L279.681 38.0312L277.886 33.3329H278.554L279.983 37.1978L281.384 33.3329H282.035L280.001 38.7822C279.745 39.4783 279.315 39.7622 278.683 39.7622C278.417 39.7622 278.216 39.7439 278.014 39.6981ZM282.188 36.5201H282.793C282.793 37.0329 283.177 37.3535 283.8 37.3535C284.487 37.3535 284.89 37.0604 284.89 36.5842C284.89 36.2178 284.707 36.0072 284.185 35.879L283.425 35.6866C282.655 35.4943 282.28 35.0913 282.28 34.4869C282.28 33.7084 282.93 33.2138 283.883 33.2138C284.817 33.2138 285.421 33.7267 285.449 34.551H284.835C284.817 34.0381 284.46 33.7359 283.864 33.7359C283.242 33.7359 282.893 34.0015 282.893 34.4777C282.893 34.8166 283.132 35.0547 283.617 35.1738L284.377 35.3661C285.146 35.5584 285.494 35.9156 285.494 36.5567C285.494 37.3535 284.817 37.8755 283.809 37.8755C282.811 37.8755 282.188 37.3443 282.188 36.5201Z" fill="#909AAE" fill-opacity="0.44"/>
<path d="M318.732 32.3594L315.444 35.647L312.156 32.3594" stroke="#667085" stroke-opacity="0.2" stroke-width="1.05675" stroke-linecap="round" stroke-linejoin="round"/>
</g>
<g clip-path="url(#clip1_1405_18772)">
<path d="M22.3455 71.5377C21.331 71.5377 20.6828 70.9036 20.6828 69.9103H21.1901C21.1901 70.6359 21.6339 71.0727 22.3525 71.0727C23.1134 71.0727 23.6065 70.5655 23.6065 69.8187C23.6065 69.1142 23.1486 68.5576 22.3525 68.5576C21.8875 68.5576 21.4648 68.769 21.1901 69.0719L20.7885 68.9451L21.3944 66.4089H23.832V66.8739H21.7607L21.3803 68.459C21.6621 68.2336 22.0284 68.1067 22.423 68.1067C23.4727 68.1067 24.1208 68.8606 24.1208 69.8046C24.1208 70.8191 23.4022 71.5377 22.3455 71.5377ZM24.7972 68.931C24.7972 67.367 25.5651 66.3103 26.8191 66.3103C28.0661 66.3103 28.834 67.367 28.834 68.931C28.834 70.502 28.0802 71.5447 26.8191 71.5447C25.551 71.5447 24.7972 70.502 24.7972 68.931ZM25.2974 68.931C25.2974 70.2414 25.8539 71.0868 26.8191 71.0868C27.7843 71.0868 28.3408 70.2414 28.3408 68.931C28.3408 67.6136 27.7843 66.7752 26.8191 66.7752C25.8539 66.7752 25.2974 67.6136 25.2974 68.931Z" fill="#9FA2B4"/>
<path d="M24.5085 107.859H23.9167V108.93H23.4235V107.859H20.7746V107.408L23.2404 103.885H23.9167V107.408H24.5085V107.859ZM21.3241 107.408H23.4235V104.407L21.3241 107.408ZM25.2972 106.408C25.2972 104.844 26.0651 103.787 27.3191 103.787C28.5661 103.787 29.334 104.844 29.334 106.408C29.334 107.979 28.5802 109.021 27.3191 109.021C26.051 109.021 25.2972 107.979 25.2972 106.408ZM25.7974 106.408C25.7974 107.718 26.3539 108.563 27.3191 108.563C28.2843 108.563 28.8408 107.718 28.8408 106.408C28.8408 105.09 28.2843 104.252 27.3191 104.252C26.3539 104.252 25.7974 105.09 25.7974 106.408Z" fill="#9FA2B4"/>
<path d="M22.188 143.701H21.7864V143.349L23.3434 141.813H20.9269V141.362H23.9845V141.771L22.4768 143.271C23.4209 143.321 24.0972 143.919 24.0972 144.835C24.0972 145.836 23.3645 146.491 22.343 146.491C21.3496 146.491 20.6804 145.878 20.6804 144.87H21.1806C21.1806 145.596 21.6314 146.033 22.343 146.033C23.0968 146.033 23.5829 145.554 23.5829 144.821C23.5829 144.131 23.0898 143.701 22.188 143.701ZM24.7972 143.884C24.7972 142.32 25.5651 141.263 26.8191 141.263C28.0661 141.263 28.834 142.32 28.834 143.884C28.834 145.455 28.0802 146.498 26.8191 146.498C25.551 146.498 24.7972 145.455 24.7972 143.884ZM25.2974 143.884C25.2974 145.195 25.8539 146.04 26.8191 146.04C27.7843 146.04 28.3408 145.195 28.3408 143.884C28.3408 142.567 27.7843 141.728 26.8191 141.728C25.8539 141.728 25.2974 142.567 25.2974 143.884Z" fill="#9FA2B4"/>
<path d="M24.096 183.875H20.7708V183.473L22.3841 182.064C23.314 181.254 23.5536 180.902 23.5536 180.303C23.5536 179.62 23.145 179.204 22.4757 179.204C21.7782 179.204 21.3203 179.711 21.2992 180.493H20.7919C20.8201 179.437 21.4894 178.739 22.4827 178.739C23.4338 178.739 24.0679 179.352 24.0679 180.275C24.0679 181.008 23.7367 181.494 22.7293 182.374L21.5528 183.403H24.096V183.875ZM24.7972 181.353C24.7972 179.789 25.5651 178.732 26.8191 178.732C28.0661 178.732 28.834 179.789 28.834 181.353C28.834 182.924 28.0802 183.967 26.8191 183.967C25.551 183.967 24.7972 182.924 24.7972 181.353ZM25.2974 181.353C25.2974 182.663 25.8539 183.509 26.8191 183.509C27.7843 183.509 28.3408 182.663 28.3408 181.353C28.3408 180.035 27.7843 179.197 26.8191 179.197C25.8539 179.197 25.2974 180.035 25.2974 181.353Z" fill="#9FA2B4"/>
<path d="M22.8319 216.765H21.8034V216.307H23.318V221.352H22.8319V216.765ZM24.2972 218.829C24.2972 217.265 25.0651 216.209 26.3191 216.209C27.5661 216.209 28.334 217.265 28.334 218.829C28.334 220.4 27.5802 221.443 26.3191 221.443C25.051 221.443 24.2972 220.4 24.2972 218.829ZM24.7974 218.829C24.7974 220.14 25.3539 220.985 26.3191 220.985C27.2843 220.985 27.8408 220.14 27.8408 218.829C27.8408 217.512 27.2843 216.674 26.3191 216.674C25.3539 216.674 24.7974 217.512 24.7974 218.829Z" fill="#9FA2B4"/>
<path d="M22.7972 256.306C22.7972 254.742 23.5651 253.685 24.8191 253.685C26.0661 253.685 26.834 254.742 26.834 256.306C26.834 257.877 26.0802 258.92 24.8191 258.92C23.551 258.92 22.7972 257.877 22.7972 256.306ZM23.2974 256.306C23.2974 257.616 23.8539 258.462 24.8191 258.462C25.7843 258.462 26.3408 257.616 26.3408 256.306C26.3408 254.989 25.7843 254.15 24.8191 254.15C23.8539 254.15 23.2974 254.989 23.2974 256.306Z" fill="#9FA2B4"/>
<path d="M39.8047 254.594L339.922 254.598" stroke="#EBEDF0" stroke-width="0.663249"/>
<path d="M35.9219 217.602L350.834 217.602" stroke="#EBEDF0" stroke-opacity="0.8" stroke-width="0.663249"/>
<path d="M35.9219 180.266L351.187 180.266" stroke="#EBEDF0" stroke-opacity="0.8" stroke-width="0.663249"/>
<path d="M35.9219 142.93L351.187 142.93" stroke="#EBEDF0" stroke-opacity="0.8" stroke-width="0.663249"/>
<path d="M35.9219 106.289L351.187 106.289" stroke="#EBEDF0" stroke-opacity="0.8" stroke-width="0.663249"/>
<path d="M35.9219 68.9531L351.187 68.9531" stroke="#EBEDF0" stroke-opacity="0.8" stroke-width="0.663249"/>
<rect x="39.0938" y="190.125" width="7.74951" height="64.8141" rx="3.87476" fill="#0F55BB"/>
<rect x="48.25" y="145.039" width="7.74951" height="109.902" rx="3.87476" fill="#EFEFEF"/>
<rect x="87.7031" y="97.8359" width="7.74951" height="157.104" rx="3.87476" fill="#0F55BB"/>
<rect x="96.8672" y="176.039" width="7.74951" height="78.9041" rx="3.87476" fill="#EFEFEF"/>
<rect x="136.312" y="126.719" width="7.74951" height="128.219" rx="3.87476" fill="#0F55BB"/>
<rect x="145.469" y="145.039" width="7.74951" height="109.902" rx="3.87476" fill="#EFEFEF"/>
<rect x="184.922" y="169.695" width="7.74951" height="85.2446" rx="3.87476" fill="#0F55BB"/>
<rect x="194.086" y="145.039" width="7.74951" height="109.902" rx="3.87476" fill="#EFEFEF"/>
<rect x="233.539" y="108.406" width="7.74951" height="146.536" rx="3.87476" fill="#0F55BB"/>
<rect x="242.695" y="135.172" width="7.74951" height="119.765" rx="3.87476" fill="#EFEFEF"/>
<rect x="282.141" y="185.195" width="7.74951" height="69.7456" rx="3.87476" fill="#0F55BB"/>
<rect x="291.305" y="165.469" width="7.74951" height="89.4716" rx="3.87476" fill="#EFEFEF"/>
<rect x="330.758" y="218.305" width="7.74951" height="36.6341" rx="3.87476" fill="#0F55BB"/>
<rect x="339.914" y="191.531" width="7.74951" height="63.4051" rx="3.87476" fill="#EFEFEF"/>
</g>
<path d="M41.5433 282.141H40.7994V276.538H41.5433L43.473 281.249L45.4026 276.538H46.1621V282.141H45.4181V279.924C45.4181 278.878 45.4259 278.498 45.4646 278.103L43.8295 282.141H43.1165L41.4891 278.119C41.5279 278.39 41.5433 278.963 41.5433 279.746V282.141ZM52.3644 279.335C52.3644 281.04 51.2485 282.234 49.6598 282.234C48.0789 282.234 46.9785 281.04 46.9785 279.335C46.9785 277.638 48.0867 276.437 49.6676 276.437C51.2562 276.437 52.3644 277.63 52.3644 279.335ZM51.5662 279.335C51.5662 278.033 50.8067 277.173 49.6676 277.173C48.5284 277.173 47.7767 278.033 47.7767 279.335C47.7767 280.637 48.5284 281.505 49.6676 281.505C50.8067 281.505 51.5662 280.629 51.5662 279.335ZM53.9402 282.141H53.1808V276.538H53.9402L56.8075 280.87V276.538H57.567V282.141H56.8075L53.9402 277.809V282.141Z" fill="#344661" fill-opacity="0.9"/>
<path d="M86.046 277.235V276.538H90.1765V277.235H88.4948V282.141H87.7354V277.235H86.046ZM90.7463 280.149V276.538H91.5057V280.103C91.5057 281.001 92.0017 281.497 92.8929 281.497C93.7763 281.497 94.2645 280.994 94.2645 280.103V276.538H95.0317V280.149C95.0317 281.435 94.2103 282.234 92.8929 282.234C91.5677 282.234 90.7463 281.443 90.7463 280.149ZM99.557 282.141H96.1394V276.538H99.557V277.235H96.8989V278.987H99.2935V279.661H96.8989V281.435H99.557V282.141ZM100.177 278.049C100.177 277.088 100.952 276.437 102.107 276.437C103.176 276.437 103.866 277.034 103.928 278.002H103.161C103.122 277.444 102.727 277.119 102.099 277.119C101.394 277.119 100.936 277.475 100.936 278.026C100.936 278.475 101.192 278.746 101.719 278.87L102.641 279.087C103.556 279.297 104.021 279.793 104.021 280.583C104.021 281.59 103.238 282.234 102.045 282.234C100.905 282.234 100.146 281.637 100.099 280.676H100.874C100.89 281.211 101.339 281.552 102.045 281.552C102.789 281.552 103.261 281.203 103.261 280.645C103.261 280.203 103.021 279.924 102.486 279.8L101.564 279.591C100.65 279.382 100.177 278.855 100.177 278.049Z" fill="#344661" fill-opacity="0.9"/>
<path d="M136.329 282.141L134.663 276.538H135.454L136.477 279.963C136.554 280.257 136.631 280.552 136.709 280.978C136.802 280.529 136.887 280.257 136.972 279.963L138.034 276.538H138.856L139.91 279.963C140.003 280.265 140.08 280.56 140.165 280.978C140.258 280.505 140.336 280.219 140.413 279.971L141.444 276.538H142.219L140.529 282.141H139.801L138.445 277.708L137.073 282.141H136.329ZM146.248 282.141H142.83V276.538H146.248V277.235H143.59V278.987H145.984V279.661H143.59V281.435H146.248V282.141ZM149.045 282.141H147.193V276.538H149.014C150.688 276.538 151.82 277.669 151.82 279.343C151.82 281.009 150.704 282.141 149.045 282.141ZM148.96 277.235H147.953V281.435H148.991C150.239 281.435 151.029 280.629 151.029 279.343C151.029 278.041 150.239 277.235 148.96 277.235Z" fill="#344661" fill-opacity="0.9"/>
<path d="M184.679 277.235V276.538H188.809V277.235H187.128V282.141H186.368V277.235H184.679ZM190.177 282.141H189.418V276.538H190.177V278.948H192.952V276.538H193.711V282.141H192.952V279.653H190.177V282.141ZM194.817 280.149V276.538H195.576V280.103C195.576 281.001 196.072 281.497 196.963 281.497C197.847 281.497 198.335 280.994 198.335 280.103V276.538H199.102V280.149C199.102 281.435 198.281 282.234 196.963 282.234C195.638 282.234 194.817 281.443 194.817 280.149Z" fill="#344661" fill-opacity="0.9"/>
<path d="M240.314 279.762H238.114V282.141H237.354V276.538H240.733V277.235H238.114V279.072H240.314V279.762ZM242.257 282.141H241.498V276.538H243.613C244.814 276.538 245.527 277.173 245.527 278.219C245.527 278.994 245.14 279.552 244.442 279.777L245.582 282.141H244.737L243.691 279.924H242.257V282.141ZM242.257 277.22L242.257 279.25H243.621C244.326 279.25 244.729 278.87 244.729 278.227C244.729 277.576 244.311 277.22 243.613 277.22H242.257ZM247.173 276.538V282.141H246.413V276.538H247.173Z" fill="#344661" fill-opacity="0.9"/>
<path d="M286.341 278.049C286.341 277.088 287.116 276.437 288.271 276.437C289.34 276.437 290.03 277.034 290.092 278.002H289.325C289.286 277.444 288.891 277.119 288.263 277.119C287.558 277.119 287.101 277.475 287.101 278.026C287.101 278.475 287.356 278.746 287.883 278.87L288.805 279.087C289.72 279.297 290.185 279.793 290.185 280.583C290.185 281.59 289.402 282.234 288.209 282.234C287.07 282.234 286.31 281.637 286.264 280.676H287.039C287.054 281.211 287.504 281.552 288.209 281.552C288.953 281.552 289.425 281.203 289.425 280.645C289.425 280.203 289.185 279.924 288.65 279.8L287.728 279.591C286.814 279.382 286.341 278.855 286.341 278.049ZM291.217 282.141H290.426L292.472 276.538H293.317L295.37 282.141H294.572L294.069 280.746H291.713L291.217 282.141ZM292.798 277.747L291.945 280.087H293.844L292.984 277.747C292.945 277.638 292.906 277.506 292.891 277.421C292.875 277.499 292.836 277.63 292.798 277.747ZM294.911 277.235V276.538H299.041V277.235H297.36V282.141H296.6V277.235H294.911Z" fill="#344661" fill-opacity="0.9"/>
<path d="M332.841 278.049C332.841 277.088 333.616 276.437 334.771 276.437C335.84 276.437 336.53 277.034 336.592 278.002H335.825C335.786 277.444 335.391 277.119 334.763 277.119C334.058 277.119 333.601 277.475 333.601 278.026C333.601 278.475 333.856 278.746 334.383 278.87L335.305 279.087C336.22 279.297 336.685 279.793 336.685 280.583C336.685 281.59 335.902 282.234 334.709 282.234C333.57 282.234 332.81 281.637 332.764 280.676H333.539C333.554 281.211 334.004 281.552 334.709 281.552C335.453 281.552 335.925 281.203 335.925 280.645C335.925 280.203 335.685 279.924 335.15 279.8L334.228 279.591C333.314 279.382 332.841 278.855 332.841 278.049ZM337.445 280.149V276.538H338.205V280.103C338.205 281.001 338.701 281.497 339.592 281.497C340.476 281.497 340.964 280.994 340.964 280.103V276.538H341.731V280.149C341.731 281.435 340.909 282.234 339.592 282.234C338.267 282.234 337.445 281.443 337.445 280.149ZM343.598 282.141H342.839V276.538H343.598L346.465 280.87V276.538H347.225V282.141H346.465L343.598 277.809V282.141Z" fill="#344661" fill-opacity="0.9"/>
</g>
<defs>
<filter id="filter0_d_1405_18772" x="232.31" y="16.2017" width="100.037" height="36.5446" filterUnits="userSpaceOnUse" color-interpolation-filters="sRGB">
<feFlood flood-opacity="0" result="BackgroundImageFix"/>
<feColorMatrix in="SourceAlpha" type="matrix" values="0 0 0 0 0 0 0 0 0 0 0 0 0 0 0 0 0 0 127 0" result="hardAlpha"/>
<feOffset dy="0.704501"/>
<feGaussianBlur stdDeviation="0.704501"/>
<feColorMatrix type="matrix" values="0 0 0 0 0.0627451 0 0 0 0 0.0941176 0 0 0 0 0.156863 0 0 0 0.05 0"/>
<feBlend mode="normal" in2="BackgroundImageFix" result="effect1_dropShadow_1405_18772"/>
<feBlend mode="normal" in="SourceGraphic" in2="effect1_dropShadow_1405_18772" result="shape"/>
</filter>
<clipPath id="clip0_1405_18772">
<rect width="360" height="304.959" rx="5.63601" fill="white"/>
</clipPath>
<clipPath id="clip1_1405_18772">
<rect width="388.18" height="197.965" fill="white" transform="translate(-13.3906 61.9062)"/>
</clipPath>
</defs>
</svg>
