<svg width="1440" height="1340" viewBox="0 0 1440 1340" fill="none" xmlns="http://www.w3.org/2000/svg">
<g opacity="0.12">
<line x1="197" y1="351.5" x2="1242" y2="351.5" stroke="#0F55BB" stroke-opacity="0.5"/>
<line x1="81" y1="671.5" x2="1358" y2="671.5" stroke="#0F55BB" stroke-opacity="0.5"/>
<line x1="81" y1="607.5" x2="1358" y2="607.5" stroke="#0F55BB" stroke-opacity="0.5"/>
<line x1="81" y1="927.5" x2="1358" y2="927.5" stroke="#0F55BB" stroke-opacity="0.5"/>
<line x1="197" y1="287.5" x2="1242" y2="287.5" stroke="#0F55BB" stroke-opacity="0.5"/>
<line x1="197" y1="543.5" x2="1242" y2="543.5" stroke="#0F55BB" stroke-opacity="0.5"/>
<line x1="81" y1="863.5" x2="1358" y2="863.5" stroke="#0F55BB" stroke-opacity="0.5"/>
<line x1="81" y1="223.5" x2="1358" y2="223.5" stroke="#0F55BB" stroke-opacity="0.5"/>
<line x1="197" y1="479.5" x2="1242" y2="479.5" stroke="#0F55BB" stroke-opacity="0.5"/>
<line x1="81" y1="799.5" x2="1358" y2="799.5" stroke="#0F55BB" stroke-opacity="0.5"/>
<line x1="197" y1="415.5" x2="1242" y2="415.5" stroke="#0F55BB" stroke-opacity="0.5"/>
<line x1="81" y1="735.5" x2="1358" y2="735.5" stroke="#0F55BB" stroke-opacity="0.5"/>
<line x1="4.37114e-08" y1="127.5" x2="1440" y2="127.5" stroke="#0F55BB" stroke-opacity="0.5"/>
</g>
<g opacity="0.12">
<line x1="81.5" y1="890" x2="81.5001" y2="-41" stroke="#0F55BB" stroke-opacity="0.5"/>
<line x1="661.5" y1="672" x2="661.5" y2="415" stroke="#0F55BB" stroke-opacity="0.5"/>
<line x1="1009.5" y1="672" x2="1009.5" y2="415" stroke="#0F55BB" stroke-opacity="0.5"/>
<line x1="429.5" y1="672" x2="429.5" y2="415" stroke="#0F55BB" stroke-opacity="0.5"/>
<line x1="1357.5" y1="890" x2="1357.5" y2="-41" stroke="#0F55BB" stroke-opacity="0.5"/>
<line x1="313.5" y1="800" x2="313.5" y2="289" stroke="#0F55BB" stroke-opacity="0.5"/>
<line x1="1241.5" y1="890" x2="1241.5" y2="127" stroke="#0F55BB" stroke-opacity="0.5"/>
<line x1="197.5" y1="890" x2="197.5" y2="127" stroke="#0F55BB" stroke-opacity="0.5"/>
<line x1="777.5" y1="672" x2="777.5" y2="415" stroke="#0F55BB" stroke-opacity="0.5"/>
<line x1="1125.5" y1="800" x2="1125.5" y2="289" stroke="#0F55BB" stroke-opacity="0.5"/>
</g>
<g opacity="0.12">
<g clip-path="url(#clip0_1387_18282)">
<mask id="path-24-inside-1_1387_18282" fill="white">
<path d="M1357 223H1476V608H1357V223Z"/>
</mask>
<line x1="1296.65" y1="268.125" x2="1492.13" y2="176.971" stroke="#0F55BB" stroke-opacity="0.5"/>
<line x1="1296.65" y1="499.516" x2="1492.13" y2="408.362" stroke="#0F55BB" stroke-opacity="0.5"/>
<line x1="1296.65" y1="383.82" x2="1492.13" y2="292.667" stroke="#0F55BB" stroke-opacity="0.5"/>
<line x1="1296.65" y1="615.203" x2="1492.13" y2="524.05" stroke="#0F55BB" stroke-opacity="0.5"/>
<line x1="1296.65" y1="284.648" x2="1492.13" y2="193.495" stroke="#0F55BB" stroke-opacity="0.5"/>
<line x1="1296.65" y1="516.039" x2="1492.13" y2="424.886" stroke="#0F55BB" stroke-opacity="0.5"/>
<line x1="1296.65" y1="400.344" x2="1492.13" y2="309.19" stroke="#0F55BB" stroke-opacity="0.5"/>
<line x1="1296.65" y1="631.734" x2="1492.13" y2="540.581" stroke="#0F55BB" stroke-opacity="0.5"/>
<line x1="1296.65" y1="301.18" x2="1492.13" y2="210.026" stroke="#0F55BB" stroke-opacity="0.5"/>
<line x1="1296.65" y1="532.57" x2="1492.13" y2="441.417" stroke="#0F55BB" stroke-opacity="0.5"/>
<line x1="1296.65" y1="416.875" x2="1492.13" y2="325.721" stroke="#0F55BB" stroke-opacity="0.5"/>
<line x1="1296.65" y1="648.266" x2="1492.13" y2="557.112" stroke="#0F55BB" stroke-opacity="0.5"/>
<line x1="1296.65" y1="317.703" x2="1492.13" y2="226.55" stroke="#0F55BB" stroke-opacity="0.5"/>
<line x1="1296.65" y1="549.094" x2="1492.13" y2="457.94" stroke="#0F55BB" stroke-opacity="0.5"/>
<line x1="1296.65" y1="433.398" x2="1492.13" y2="342.245" stroke="#0F55BB" stroke-opacity="0.5"/>
<line x1="1296.65" y1="664.789" x2="1492.13" y2="573.636" stroke="#0F55BB" stroke-opacity="0.5"/>
<line x1="1296.65" y1="334.234" x2="1492.13" y2="243.081" stroke="#0F55BB" stroke-opacity="0.5"/>
<line x1="1296.65" y1="565.625" x2="1492.13" y2="474.471" stroke="#0F55BB" stroke-opacity="0.5"/>
<line x1="1296.65" y1="449.93" x2="1492.13" y2="358.776" stroke="#0F55BB" stroke-opacity="0.5"/>
<line x1="1296.65" y1="681.32" x2="1492.13" y2="590.167" stroke="#0F55BB" stroke-opacity="0.5"/>
<line x1="1296.65" y1="350.766" x2="1492.13" y2="259.612" stroke="#0F55BB" stroke-opacity="0.5"/>
<line x1="1296.65" y1="582.148" x2="1492.13" y2="490.995" stroke="#0F55BB" stroke-opacity="0.5"/>
<line x1="1296.65" y1="466.453" x2="1492.13" y2="375.3" stroke="#0F55BB" stroke-opacity="0.5"/>
<line x1="1296.65" y1="697.844" x2="1492.13" y2="606.69" stroke="#0F55BB" stroke-opacity="0.5"/>
<line x1="1296.65" y1="367.289" x2="1492.13" y2="276.136" stroke="#0F55BB" stroke-opacity="0.5"/>
<line x1="1296.65" y1="598.68" x2="1492.13" y2="507.526" stroke="#0F55BB" stroke-opacity="0.5"/>
<line x1="1296.65" y1="482.984" x2="1492.13" y2="391.831" stroke="#0F55BB" stroke-opacity="0.5"/>
</g>
<path d="M1357 224H1476V222H1357V224ZM1476 607H1357V609H1476V607Z" fill="#0F55BB" fill-opacity="0.5" mask="url(#path-24-inside-1_1387_18282)"/>
</g>
<g opacity="0.12">
<g clip-path="url(#clip1_1387_18282)">
<mask id="path-53-inside-2_1387_18282" fill="white">
<path d="M-37 223H82V608H-37V223Z"/>
</mask>
<line x1="-97.3519" y1="268.125" x2="98.1273" y2="176.971" stroke="#0F55BB" stroke-opacity="0.5"/>
<line x1="-97.3519" y1="499.516" x2="98.1273" y2="408.362" stroke="#0F55BB" stroke-opacity="0.5"/>
<line x1="-97.3519" y1="383.82" x2="98.1273" y2="292.667" stroke="#0F55BB" stroke-opacity="0.5"/>
<line x1="-97.3519" y1="615.203" x2="98.1273" y2="524.05" stroke="#0F55BB" stroke-opacity="0.5"/>
<line x1="-97.3519" y1="284.648" x2="98.1273" y2="193.495" stroke="#0F55BB" stroke-opacity="0.5"/>
<line x1="-97.3519" y1="516.039" x2="98.1273" y2="424.886" stroke="#0F55BB" stroke-opacity="0.5"/>
<line x1="-97.3519" y1="400.344" x2="98.1273" y2="309.19" stroke="#0F55BB" stroke-opacity="0.5"/>
<line x1="-97.3519" y1="631.734" x2="98.1273" y2="540.581" stroke="#0F55BB" stroke-opacity="0.5"/>
<line x1="-97.3519" y1="301.18" x2="98.1273" y2="210.026" stroke="#0F55BB" stroke-opacity="0.5"/>
<line x1="-97.3519" y1="532.57" x2="98.1273" y2="441.417" stroke="#0F55BB" stroke-opacity="0.5"/>
<line x1="-97.3519" y1="416.875" x2="98.1273" y2="325.721" stroke="#0F55BB" stroke-opacity="0.5"/>
<line x1="-97.3519" y1="648.266" x2="98.1273" y2="557.112" stroke="#0F55BB" stroke-opacity="0.5"/>
<line x1="-97.3519" y1="317.703" x2="98.1273" y2="226.55" stroke="#0F55BB" stroke-opacity="0.5"/>
<line x1="-97.3519" y1="549.094" x2="98.1273" y2="457.94" stroke="#0F55BB" stroke-opacity="0.5"/>
<line x1="-97.3519" y1="433.398" x2="98.1273" y2="342.245" stroke="#0F55BB" stroke-opacity="0.5"/>
<line x1="-97.3519" y1="664.789" x2="98.1273" y2="573.636" stroke="#0F55BB" stroke-opacity="0.5"/>
<line x1="-97.3519" y1="334.234" x2="98.1273" y2="243.081" stroke="#0F55BB" stroke-opacity="0.5"/>
<line x1="-97.3519" y1="565.625" x2="98.1273" y2="474.471" stroke="#0F55BB" stroke-opacity="0.5"/>
<line x1="-97.3519" y1="449.93" x2="98.1273" y2="358.776" stroke="#0F55BB" stroke-opacity="0.5"/>
<line x1="-97.3519" y1="681.32" x2="98.1273" y2="590.167" stroke="#0F55BB" stroke-opacity="0.5"/>
<line x1="-97.3519" y1="350.766" x2="98.1273" y2="259.612" stroke="#0F55BB" stroke-opacity="0.5"/>
<line x1="-97.3519" y1="582.148" x2="98.1273" y2="490.995" stroke="#0F55BB" stroke-opacity="0.5"/>
<line x1="-97.3519" y1="466.453" x2="98.1273" y2="375.3" stroke="#0F55BB" stroke-opacity="0.5"/>
<line x1="-97.3519" y1="697.844" x2="98.1273" y2="606.69" stroke="#0F55BB" stroke-opacity="0.5"/>
<line x1="-97.3519" y1="367.289" x2="98.1273" y2="276.136" stroke="#0F55BB" stroke-opacity="0.5"/>
<line x1="-97.3519" y1="598.68" x2="98.1273" y2="507.526" stroke="#0F55BB" stroke-opacity="0.5"/>
<line x1="-97.3519" y1="482.984" x2="98.1273" y2="391.831" stroke="#0F55BB" stroke-opacity="0.5"/>
</g>
<path d="M-37 224H82V222H-37V224ZM82 607H-37V609H82V607Z" fill="#0F55BB" fill-opacity="0.5" mask="url(#path-53-inside-2_1387_18282)"/>
</g>
<g opacity="0.18">
<g filter="url(#filter0_f_1387_18282)">
<path d="M1205.96 375.475C1204.11 459.668 1449 458.69 1449 458.69C1472.1 448.771 1511.87 420.711 1486.14 387.826C1378.15 249.845 1504.17 143.74 1303.12 104.673C1303.12 104.673 1008.73 111.385 1069.98 197.424C1108.23 251.139 1201.41 208.559 1221.83 271.254C1234.58 310.399 1207.8 291.283 1205.96 375.475Z" fill="#FFAAF7"/>
</g>
<g opacity="0.99" filter="url(#filter1_f_1387_18282)">
<path d="M185.23 433.447C135.339 367.779 -51.8051 517.752 -51.8051 517.752C-63.4717 539.434 -76.8629 585.181 -37.0944 594.71C129.771 634.691 97.8134 792.829 275.757 700.265C275.757 700.265 497.359 515.73 397.97 487.093C335.921 469.215 290.431 558.64 236.571 523.021C202.94 500.78 235.121 499.116 185.23 433.447Z" fill="#06816B"/>
</g>
</g>
<defs>
<filter id="filter0_f_1387_18282" x="910.002" y="-46.9281" width="736.098" height="657.216" filterUnits="userSpaceOnUse" color-interpolation-filters="sRGB">
<feFlood flood-opacity="0" result="BackgroundImageFix"/>
<feBlend mode="normal" in="SourceGraphic" in2="BackgroundImageFix" result="shape"/>
<feGaussianBlur stdDeviation="75.8" result="effect1_foregroundBlur_1387_18282"/>
</filter>
<filter id="filter1_f_1387_18282" x="-221.042" y="259.512" width="801.952" height="626.67" filterUnits="userSpaceOnUse" color-interpolation-filters="sRGB">
<feFlood flood-opacity="0" result="BackgroundImageFix"/>
<feBlend mode="normal" in="SourceGraphic" in2="BackgroundImageFix" result="shape"/>
<feGaussianBlur stdDeviation="78.65" result="effect1_foregroundBlur_1387_18282"/>
</filter>
<clipPath id="clip0_1387_18282">
<path d="M1357 223H1476V608H1357V223Z" fill="white"/>
</clipPath>
<clipPath id="clip1_1387_18282">
<path d="M-37 223H82V608H-37V223Z" fill="white"/>
</clipPath>
</defs>
</svg>
